<?xml version="1.0" encoding="utf-8"?>
<!-- Generator: Adobe Illustrator 19.1.0, SVG Export Plug-In . SVG Version: 6.00 Build 0)  -->
<svg version="1.1" id="Layer_1" xmlns="http://www.w3.org/2000/svg" xmlns:xlink="http://www.w3.org/1999/xlink" x="0px" y="0px"
	 viewBox="0 0 180 200" style="enable-background:new 0 0 180 200;" xml:space="preserve">
<style type="text/css">
	.st0{fill:#272F39;}
</style>
<g>
	<path class="st0" d="M94.9,131.1h0.3c0.1,0.9,0.2,1.8,0.3,2.7c0.5,2.2,0.5,2.2,0.9,3.9c0.8,2.7,2,5.1,3.7,7.6
		c1.1,1.4,1.1,1.4,1.2,1.5c-1.8,0-2-0.1-3.4-1.2c-1.5-0.5-3.8-2.5-4.7-3.7c-0.5,0-0.4-0.1-0.6,0.1c-0.1,0.3-0.1,0.3-0.3,4.4
		c-0.2,1.1-0.3,2.2-0.5,3.4c-0.6,3.2-1.5,6.5-2.7,9.7c0,0.2-0.1,0.5-0.1,0.7c-0.7-1.7-1.3-3.3-1.7-4.9c-0.7-2.9-1.1-5.7-1.5-8.5
		c0-1.5-0.1-3-0.1-4.5c-0.5-0.3-0.6-0.2-0.8,0.2c-0.1,0-0.2,0-0.3,0c-0.5,0.8-1.5,2.6-2.5,2.7c-0.7,0.6-1.4,1.2-2.2,1.3
		c-0.4,0-0.8,0-1.2,0c1-1.3,2-2.8,2.9-4.1c0.5-1,0.9-2,1.3-3c0.4-1.2,0.4-1.2,1.1-3.6c-0.2,2.8-1,4.7-2.3,7.1c-0.5,0.7-1,1.3-1.5,2
		c0,0.3,0,0.5,0.5,0.5c2.1-1.2,3.5-2.7,4.7-4.7c0.2-0.5,0.4-1,0.6-1.5c1.6,2.7,2.1,5.4,2.6,8.6c0,0.2,0.1,0.3,0.2,0.5
		c0.2,0,0.3,0,0.5,0c0.4-0.5,0.1-4.4,0.2-4.3c0.2,0,0.3,0,0.5,0c-0.1,1.3-0.2,2.7-0.1,4c0.1,0.2,0.2,0.3,0.6,0.2
		c0-0.1,0.1-0.1,0.2-0.2c0.4-3.2,1-6.1,2.7-8.9c0,0,0,0,0.5,1.3c0.2,0.5,0.5,0.9,0.7,1.4c0.3,0.4,3.8,4.5,4.5,3.3v-0.3
		c-1.5-2-2.6-3.7-3.2-5.9c-0.5-2.5-0.7-4.1-0.8-4.8c-0.4-0.1-0.4,0-0.6,0c-0.8,1.8-2.3,3.4-3.2,5.2c-0.3,1.1-0.7,2.2-1,3.2
		c0.2-3.2,1.5-4.8,3.2-7.4C94.3,134,94.6,132.9,94.9,131.1L94.9,131.1z M67.8,190.4c-2.6-0.6-4.1-1.5-5.5-3.7c-1-2.2-1-3.5-0.3-5.6
		c0.1-0.1,0.1-0.1,0.5-0.2c0.1,0,0.2,0.1,0.2,0.2c0.1,0.5,0.1,1.1,0.2,1.6c0.5,2.3,1.5,3.6,4,4.4c1,0.2,2.1,0.2,3.3,0.2
		c2.7-0.4,5.1-2.2,7.1-3.9c3.2-2.9,5.7-6.4,8.1-10c1-0.4,0.7,1.2,0.7,1.8c0,0.3,0.4,1.7,0.3,2c-1.5,1.9-2.9,3.8-4.4,5.7
		c-1.7,1.8-3.4,3.7-5.5,5.2c-1.7,1-3.4,1.6-5.2,2.1C70.1,190.4,68.9,190.4,67.8,190.4L67.8,190.4z M98.8,151.8
		c-0.9-2.2-0.9-2.2-1.9-5.2c-0.5-0.5-1-0.6-1.4-0.8c0.6,0.1,1.1,0.3,1.8,0.8c0.4,1.6,0.9,3.2,1.5,4.9
		C98.8,151.5,98.8,151.6,98.8,151.8L98.8,151.8z M90.8,184.9c-4.1-6.5-4.5-15-3.7-22.4c0.2-1.1,0.3-2.2,0.5-3.3
		c0.1,0,0.9,1.7,0.8,2.1c-0.1,0-0.2,0.1-0.3,0.2c0,0.2,0.9,3.2,1.3,5.1c0.5,3.1,0.6,6.3,0.6,9.6c0.2,0.2,0.6,0.3,0.8-0.1
		c1.5-16.8,1.5-16.8,1.5-17.3c-0.1-0.1-0.1-0.1-0.5-0.3c0.2-0.7,0.5-1.3,0.7-2c2,8,2.6,16.7,0.2,24.7
		C92.3,182.3,91.6,184,90.8,184.9L90.8,184.9z M90.3,199.9c-1.6-2-2.7-4-3.6-6.2c-1-2.9-1.7-5.6-2.2-8.4c-0.1-1-0.3-2-0.4-3
		c-0.4-0.3-0.3-0.3-0.6-0.3c-0.1,0.1-0.2,0.2-0.4,0.2c-0.6,1.1-1.3,2.2-2.2,3.2c-0.4,0.4-0.8,0.8-1.2,1.2c-4.1,3.5-8.3,5.4-13.6,4
		c-1.1-0.4-1.1-0.4-2.1-1c-1.8-1.4-2.5-2.7-3-4.7c-0.2-2.9,0.3-5.6,2.7-7.4c0.1,0,0.2-0.1,0.2-0.1c0.1,2.2,1.2,3.7,3.5,4.5
		c2.4,0.6,4.6,0.2,6.9-0.8c2-1.2,3.2-2.5,3.6-4.8v-1.4c-0.4-0.3-0.3-0.3-0.7-0.3c-0.6,0.3-1.2,0.6-1.8,0.9c-3,1.1-6.6,1.7-9.6,0.2
		c0.6,0.2,1.2,0.3,1.9,0.5c1.8,0.2,3.7,0,5.6-0.3c4.4-1.3,8.1-3.5,12-6.1c0.5-0.6,0.3-2.1,0.3-2.7c0,1.3,0.1,2.6,0.1,3.9
		c0.2,3,0.7,5.8,1.5,8.8c0.5,1.5,1,2.8,1.8,4.4c0.3,0.5,0.7,1,1.1,1.5c0.1,1.1,0.2,2.2,0.2,3.3c0.2,0,0.4,0.1,0.6,0.2
		c0,0.1-0.2,0.2-0.3,0.3c-0.1-0.1-0.1-0.1-1.4-2.6l-0.7,0.2c0.4,3.7,0.4,3.7,0.8,7.4c0.3,0.4,0.6,0.2,0.8-0.1
		c0.2-1.9,0.9-3.3,1.8-4.9c0-0.9-0.5-0.4-0.8-0.5c0.7-1.1,1.3-2.2,1.8-3.3c0.4-1.2,0.7-2.3,1.1-3.5c-0.4,3.9-1.2,8-2.4,11.9
		c-0.2,0.4-0.8,2.2-1.2,2.3c-1.2-1.5-1.2-1.5-1.7-2.2c-1.7-3.4-2.5-6.5-3.2-10.1c-0.1-1-0.2-2-0.4-3c-0.3-0.3-0.5-0.2-0.7,0
		c0.4,5.1,1.4,10,4.2,14.5c0.5,0.5,0.9,1,1.4,1.6C90.3,199.8,90.3,199.8,90.3,199.9L90.3,199.9z M64.8,175.1c-1.7-1.2-2.7-2.3-3.5-4
		c-0.7-3.6,0.7-6.9,4.6-7.5c0.2,2.7,0.8,4.3,3.5,5.6c0.9,0.2,0.9,0.2,1.3,0.3c3.9,0,7.1-1.5,9.4-4.7c0.7-1.3,1.3-2.6,0.8-3.9
		c-0.7-0.4-1.9,0.8-2.7,1.2c-1.7,0.4-2.7,0.2-4-0.8c-1.1-1.4-1.8-3.2-0.9-4.8c0.4,0.2,0.7,0.5,1.1,0.8c2.6,1.1,4.5-0.6,6.4-2.4
		c1.2-1.4,2.2-2.8,3.1-4.2c0.2,0.2,0.2,0.2,2.7,6.2c-0.2-0.1-0.2-0.1-0.5-0.1c-0.1,0.1-0.2,0.2-0.2,0.4c-1.1,3.4-2.7,6.2-5,8.9
		c-1.1,1-2.1,2-3.4,2.7c-0.4,0.2-1.9,0.7-0.8,1.3c2.4-1.2,4.7-2.7,6.9-4.3c1.7-1.5,1.7-1.5,2-1.7c0.1-2.5,0.4-4.7,1.1-7
		c0.2,0.4,0.3,0.7,0.5,1.2c-0.3,0-0.3,0.2-0.4,0.5c-0.4,2.4-0.7,4.9-1,7.5c-0.8-0.6-0.9,0.2-1.2,0.8c-0.6,0.7-1.4,1.2-2.1,1.8
		c-3.8,2.4-8.1,4.7-12.5,5.2c-2.7,0-4.4-0.1-5.8-2.2c-0.9-1.9-1-3.6-0.7-5.5c0-0.2-0.1-0.4-0.1-0.6c-0.1,0-0.1,0-0.5,0
		c-2,2.8-1.9,5.8,0.5,8.5c0.4,0.3,0.8,0.6,1.2,0.9C64.8,175.1,64.8,175.1,64.8,175.1L64.8,175.1z M109.4,176.4
		c-3.8-0.4-7-1.4-10.1-3.4c-0.9-0.7-2.6-1.8-3-2.5c0-1-0.1-2-0.1-3.1c0.6-0.9,1.1,0.6,1.5,1.2c3.5,3.5,9.2,5.9,14.5,4.9
		c0.4-0.1,0.8-0.3,1.2-0.5c2.1-1.2,2.6-2.8,3-5c0-2.2,0-2.2-0.1-2.8c0.2-0.2,0.2-0.2,0.5-0.2c1.7,1.3,1.9,3.2,1.4,5.4
		c-0.1,0.4-0.3,0.8-0.5,1.2c-0.5,0.9-1.1,1.6-1.7,2.4C113.9,175.8,111.9,176.3,109.4,176.4L109.4,176.4z M109.4,191.4
		c-1.1-0.2-2-0.4-2.9-0.7c-3-1.2-5.2-2.8-7.2-5c-0.5-0.7-1.1-1.4-1.6-2c-0.7-1.5-1.7-2.3-1.8-3.9c2.4,2.9,4.5,5.7,7.7,8
		c1.5,0.9,2.9,1.6,4.7,2.1c0.7,0.1,1.5,0.2,2.2,0.4c3.5,0,5.9-1,7.7-4.2c0.5-1.7,0.9-3.5-0.1-5.1c-0.4-0.1-0.4,0-0.6,0.2
		c-0.2,2.4-0.7,4.1-2.9,5.4c-2.1,0.7-4.2,0.9-6.2,0.4c-2.7-1.2-4.7-2.9-6.7-4.7c-1.2-1.3-2.2-2.5-3.3-3.7c-0.3-0.5-1.6-2.6-2.3-2.6
		c-0.4,0.4-0.5,2.1-0.6,2.8h-0.1c0.5-3.6,0.7-7,0.8-10.5c-0.1-1.3-0.2-2.6-0.2-3.9c-0.2-1.8-0.2-1.8-0.2-2.1c1,2.6,2.1,4,4.7,5.7
		c0.7,0.3,1.4,0.7,2.2,1c0.3-0.2,0.3-0.4,0.3-0.6c-0.4-0.2-0.4-0.2-1.2-0.7c-2.9-2.6-4.2-6.4-6-9.5c-0.2-0.1-0.3-0.1-0.5-0.1
		c-0.3,0.3-0.1,0.7-0.1,1.2c-0.5-1.7-1-3.1-2-4.6c0.1-1.5,0.6-2.9,0.9-4.2c0.5-2.4,0.5-2.4,0.6-3.8c1.2,3.9,3,6.9,6,10
		c0.3,0.1,0.6,0,0.6-0.5c-1.1-1.6-1.8-3-2.5-4.6c1.1,2.2,2.4,5.3,5.5,5.3c0.7-0.2,1.2-0.5,1.9-0.8c1.6,1.8,0.7,4.4-1.1,5.9
		c-2.2,1.1-3.7,0.2-5.4-0.9c-0.2,0-0.3,0-0.5,0c-0.1,0.1-0.2,0.1-0.2,0.2c-0.4,2.1,0.9,3.9,2.3,5.4c2.4,2.1,5.8,3.7,9.2,2.8
		c2.7-0.9,3.5-3.1,3.7-5.7c1.2,0.2,2.3,0.6,3.4,1.5c1.4,1.6,1.7,3.5,1.2,5.7c-1,2-2,3.3-3.9,4.4c-0.3,0.2-0.6,0.3-0.9,0.5
		c-2.4,0.9-4.4,1-6.7,0.6c-1.5-0.5-1.5-0.5-2.7-0.9c-0.7-0.3-1.6-0.9-2.2-0.9c-0.5,0.6-0.4,1.2-0.2,2.1c0.3,1.2,0.9,2.1,1.9,3.2
		c2.7,2.3,6.7,3.2,10.1,1.4c1.4-1.2,2-2.2,2.1-3.9c2.1,1.2,2.9,3.8,3,6.2c-0.3,3-1.2,4.9-4,6.4C113.1,191.3,111.3,191.4,109.4,191.4
		L109.4,191.4z M85.6,120.5l-1.6,2.7c-2.1,2.7-3.9,5.3-5.5,8.3c-0.7,1.7-1.4,3.4-2,5.2c-0.2,1.2-0.4,2.5-0.6,3.8
		c-2.3-2.2-3.2-5-4.3-7.8c-0.6-0.2-0.6,0-0.7,0.4c0.4,2.8,0.9,6.1,2.8,8.6c0,0,0.1,0.1,0.2,0.1c-0.2,1.5-0.2,3-0.3,4.7
		c-0.7-0.3-1.3-0.7-2-1c-2.8-1.8-3.6-3.5-4-6.6c0-2.8,0-2.8,0-3.9c-0.2-0.2-0.3-0.2-0.4-0.3c-3.9,1.8-8,3.4-12.3,2.5
		c1.3-0.7,2.6-1.7,3.6-2.8c2.7-0.7,5.3-1.8,7-4.2c1.1-0.2,2.2-0.7,3.2-1.1c0.9-0.5,4.9-2.6,4.8-4.1c-0.7-0.3-1.1,0.5-1.5,0.8
		c-1.5,1-3,1.7-4.5,2.3c-0.9,0.2-1.7,0.3-1.9,0.5c-1.2,1.5-2.5,2.6-4.3,3.4c-0.7,0.2-1.4,0.3-2.1,0.5c-0.3-0.1-0.7-0.2-1-0.2v-0.1
		c1.1-0.9,2-2,2.9-3.2c2.4-0.7,4-1.4,5.9-3.1c0.2-0.3,0.5-0.6,0.8-1c2.6-0.5,6.7-2.4,8.1-4.9c0-0.2-0.1-0.3-0.2-0.4
		c-0.1,0-0.2,0-0.4,0c-2,2-4.6,3.1-7.2,3.5c-0.4,0.3-1.2,1.1-1.4,1.6c-0.1,0-0.1,0-1,0.8c-0.9,0.5-3.6,2-4.6,1.5
		c0.8-0.8,0.8-0.8,1.6-1.6c2.9-0.7,4.8-1.7,6.8-4c0.3-0.1,0.3-0.1,1.2-0.3c2.7-1,5.2-2.2,6.9-4.7c0-0.5-0.4-0.5-0.6-0.5
		c-1,1.5-3.7,2.6-5.4,3.2c-0.9,0.2-1.7,0.3-1.9,0.4c-1.6,2-3.6,3.6-6.2,3.9c-1-0.1-1-0.1-1.2-0.2c0.5-0.5,1-1,1.5-1.4
		c0.8-1,1.5-2,2.1-3c1.5-2.7,2.5-5.6,3.7-8.3c1.6-3.4,2.8-6.2,6.9-6.7c3.3,0,4.1,0.4,6.9,1.9c1.5,1.2,1.7,2.7,2,4.6
		C85.8,113.6,85.8,117,85.6,120.5L85.6,120.5z M95.1,111.1c0.7-5.8,5.4-9.2,11.1-6.4c1.8,1.2,2.5,2.6,3.7,4.6c2,4.5,3.4,9.4,7,13.3
		c0.9,0.7,0.9,0.7,0.9,0.8c-2.3,0.7-5.2-1.4-6.5-2.8c-1-1.2-0.9-1-2.5-1.3c-2.2-0.7-4.1-1.6-5.6-3.1v-0.1c-1.2,0-0.5,0.8,0,1.5
		c2.1,1.9,4.5,3.2,7.4,3.9c1.3,1.5,2.5,2.4,4.4,3.3c1.3,0.4,1.3,0.4,2.5,0.7c0.9,1,0.9,1,1.6,1.6c-1,0.5-3.4-0.8-4.2-1.2
		c-0.8-0.6-2.5-1.9-2.7-2.7c-0.2-0.1-0.2-0.1-1.1-0.2c-2-0.6-3.6-1.3-5.2-2.3c-0.6-0.5-1.4-1.7-1.7-0.7c1.5,2.5,5.2,4.2,8.1,4.9
		c1.1,1.3,2.1,2.2,3.7,3.1c1,0.4,1.9,0.7,3.1,1c0.7,1.2,1.7,2.2,2.9,3.2c-0.3,0.1-0.6,0.2-0.8,0.3c-0.8,0-1.5-0.3-2.2-0.5
		c-2.1-0.9-3.2-1.8-4.5-3.5c-0.2-0.1-1.5-0.3-2.9-0.7c-1.8-0.7-3.3-1.5-4.5-2.8c-0.4,0-0.4,0-0.6,0.1c0,1.6,3.3,3.3,4.7,4.1
		c1,0.4,2.1,0.9,3.3,1.1c2.1,2.4,3.8,3.5,7,4.1c0.3,0.6,1.4,1.3,2.1,1.9c1.5,0.9,1.5,0.9,1.5,1c-4.1,1.2-8.8-0.8-12.3-2.5
		c-0.2,0.1-0.2,0.2-0.4,0.3c0.2,3,0.2,5.2-1.2,7.9c-1.3,1.7-2.8,2.6-4.7,3.6c0-0.8,0-1.6,0-2.5c-0.3-2-0.3-2-0.2-2.2
		c2-2.3,2.5-6.1,2.9-8.9c-0.4-0.5-0.5-0.3-0.8,0c-0.8,2.2-1.8,4.6-3.2,6.6c-0.4,0.3-0.7,0.6-1,1c-0.1-0.7-0.2-1.5-0.2-2.2
		c-1.2-5.9-4.3-10.4-7.8-15C93.5,122,94.9,115.8,95.1,111.1L95.1,111.1z M129.3,49.4c-0.9-0.2-1.9-0.3-2.7-0.2
		c-0.1-2.2,3-4.6,4.6-5.8c0.3-0.2,2.8-1.7,3.1-1.6c-0.2,0.4-0.3,0.4-0.3,1C131.8,43.9,130.9,47.5,129.3,49.4L129.3,49.4z M133,53.1
		c-0.5-1.6-1.1-2.2-2.2-3c0-0.1,0-0.1,0-0.2c1.1-2.1,2.2-4.1,3.3-6.2h0.1c1,2.8,1.7,5.2,0,8.1C133.9,52.3,133.5,52.8,133,53.1
		L133,53.1z M138.8,54.3c-1.2-0.8-2-1.2-3.3-1.4c2-2.3,5.9-3.2,8.8-3.7h1.5c-0.3,0.2-0.3,0.2-0.5,0.7c-0.1,0-0.1,0-0.2-0.1
		C142.9,51.3,140.8,52.8,138.8,54.3L138.8,54.3z M140.4,59c0.2-1.5-0.1-2.4-0.5-3.5c1.8-1.3,3.6-3,5.2-4.6c0,2.7-1.3,5.4-3.3,7.3
		C141,58.8,141,58.8,140.4,59L140.4,59z M141.4,64c-0.7-1.1-1.2-1.9-2.2-2.6c0-0.2,3-1.2,3.7-1.4c1.9-0.2,3.8-0.2,5.9,0.1
		c0.4,0.1,3,0.5,3.3,1c-0.5,0-0.7,0.5-1.1,0.4C144.5,63.3,144.5,63.3,141.4,64L141.4,64z M142,68.9c0.2-1.2,0.1-2.2,0-3.2
		c8.9-3.3,8.9-3.3,8.9-3.3C148.9,66,146.3,68.5,142,68.9L142,68.9z M153.6,75v-0.5c-4.5-0.2-9.1-0.5-13.6-0.7
		c-0.2-0.4-0.5-0.9-0.5-1.2c0.4-0.4,1-0.9,1.3-1.4c4.4-0.2,9.4,0.7,13.4,3.1c0.2,0,0.3,0.1,0.5,0.2C154.3,74.6,154.1,74.8,153.6,75
		L153.6,75z M143.5,79.3c-1.1,0-2.1-0.2-3-0.5c0.1-1.2,0.1-2.3,0-3.3c4.2-0.2,8.6-0.1,12.8-0.1c-2.2,1.5-4.1,2.6-6.6,3.4
		C145.6,78.9,144.5,79,143.5,79.3L143.5,79.3z M151.9,91.6c-0.3-0.2-0.6-0.3-0.9-0.4c-1.4-4.7-3.7-7.9-7.7-10.4
		c0.5,0,0.9,0.1,1.4,0.1c0.6,0.3,1.2,0.7,1.8,1.1C149.7,84.6,151.5,87.5,151.9,91.6L151.9,91.6L151.9,91.6z M148.6,92.4
		c-2.9-0.2-5.4-0.7-8.1-1.5c-1.2-0.5-5.2-2.2-5.2-3.1c0.6-1.1,0.8-2,1.1-3c1.4,0.7,1.4,0.7,13.1,6.9c0.4-0.1,0.4-0.2,0.3-0.6
		c-3.9-2.6-7.8-5.2-11.7-7.8c0.1-0.2,0.3-0.3,0.9-1.1c0.5-0.7,0.5-0.7,0.8-1.5c0.5,0,1,0.2,1.6,0.4c3.5,1.4,5.5,3.7,7.4,7.2
		c0.4,1.1,0.8,2.4,1.4,3.6c0.2,0.1,0.5,0.3,0.8,0.4C149.9,92.4,149.9,92.4,148.6,92.4L148.6,92.4z M139.3,100.6
		c-2.7-3.1-5.3-6.2-7.9-9.3c0.9-0.5,0.9-0.5,1.6-1c0.2-0.2,0.7-0.8,1-0.8C136.8,92.4,139.3,96.1,139.3,100.6L139.3,100.6z
		 M140,102.9c-1.7-0.3-3.3-0.8-4.7-1.3c-0.7-0.3-2.4-1-2.7-1.5c-2-1.1-3.4-2.5-4.7-4.1c-0.8-1.3-0.9-1.2,0.2-2.4
		c0.3-0.5,0.6-1.1,0.9-1.7c0.2-0.1,0.2-0.1,0.5-0.1c3.1,3.2,6.3,6.4,9.4,9.5c0.1,0,0.2,0,0.3,0c0,0.2-0.1,0.3,0.1,0.7
		C140,102.9,140,102.9,140,102.9L140,102.9z M124.9,108.1c-0.7-3.9-1.5-7.7-2.2-11.6c1,0,1.9-0.1,3-0.5c0.5,1.2,0.9,2.4,1.2,3.9
		C127,102.9,126.5,105.5,124.9,108.1L124.9,108.1z M124.5,110.4c-2.5-0.9-3.7-3.5-4.8-5.5c-1-2.5-1.7-5-1.6-7.5
		c0.6-0.3,1.2-0.7,1.9-1.1c0.3,0,0.6,0.1,1,0.1c1,4.1,2.2,8.1,3.2,12.3c0.1,0.1,0.2,0.2,0.3,0.2
		C124.3,109.4,124.3,109.5,124.5,110.4L124.5,110.4L124.5,110.4z M118.1,117.4c-0.3-6.6-0.7-13.2-1-19.7h0.1c0.2,4,1.3,7.6,3.8,11.1
		C120.8,111.5,120.1,115,118.1,117.4L118.1,117.4z M117.6,118.4c-2.5-3.1-3.8-5.7-4.4-9.5c-0.2-2.5-0.2-4.6,0-6.9
		c0.3-1.9,0.3-1.9,0.3-2.2c-0.3-0.4-0.5-0.3-0.7-0.3c-2.9,1.5-6,2.2-9,1.2c-0.5-0.2-0.9-0.4-1.3-0.7c0-0.2,0-0.2,0.2-0.4
		c0.4,0,1.3,0.1,2.3,0.1c2-0.4,2.8-1.2,4.3-2.6c1.6,1,3.9,1.2,6,0.9c0.9,7.8,0.9,7.8,2.1,19.3c0.2,0,0.4,0,0.6,0
		C117.8,117.9,117.8,117.9,117.6,118.4L117.6,118.4z M50.8,49c-1.5-2.1-2.9-4.2-4.4-6.4c-0.4-0.3-0.2-0.4-0.2-0.7
		C46,41.7,46,41.6,46,41.4c2.7,1.3,7.2,3.8,7.7,7.4C52.6,48.9,51.8,48.9,50.8,49L50.8,49z M46.9,52.9c-0.4-0.5-0.8-0.9-1.2-1.4
		c-1.1-2.1-1.2-3.5-0.8-5.7c0.5-1.4,0.5-1.4,0.9-2.4h0.1c0.9,2.1,2.1,4.2,3.3,6.4C47.8,50.9,47.6,51.4,46.9,52.9L46.9,52.9z
		 M41.3,53.9c-2-1.5-4.1-3-6.2-4.5c-0.1,0-0.2,0.1-0.2,0.1c-0.2-0.4-0.3-0.6-0.5-0.7c3.5,0,7.6,1,10.3,3.7
		C43.1,52.9,42.4,53.1,41.3,53.9L41.3,53.9z M39.5,58.6c-3.2-2-4.2-4.8-4.6-8.2c1.6,1.6,3.3,3.2,5.2,4.7c0,0.2-0.2,0.5-0.5,1.1
		C39.5,56.9,39.5,57.9,39.5,58.6L39.5,58.6L39.5,58.6z M38.4,63.8c-3.1-0.9-6.2-1.7-9.4-2.6l-0.3,0.1c-0.2-0.6-0.5-0.5-0.8-0.6
		c4-1.3,8.9-1.9,12.8,0.4v0.1c-1,0.8-1.5,1.5-2.2,2.7h-0.1V63.8z M37.9,68.6c-3.6-0.5-5.7-2-7.7-4.8c-0.3-0.6-0.6-1.1-1-1.7
		c0.1,0,0.2,0,0.3,0c2.9,1.1,5.7,2.2,8.6,3.2c-0.1,1.1-0.2,2.1,0,3.2L37.9,68.6L37.9,68.6z M26,74.4c-0.3-0.2-0.5-0.3-0.7-0.3
		c1.8-1,3.4-1.6,5.4-2.2c2.7-0.7,5.4-1.1,8.3-1c0.5,0.5,1,1,1.5,1.4c0,0.3-0.3,0.8-0.5,1.2l-0.4,0.1c-4.5,0.2-8.9,0.5-13.4,0.8
		C26.1,74.4,26.1,74.4,26,74.4L26,74.4z M35.9,78.9c-2.7-0.4-4.6-1-6.9-2.2c-1.2-0.8-1.2-0.8-2.2-1.5c4.2,0,8.5,0,12.7,0
		c-0.1,1.1-0.2,2.1,0,3.3C38.3,78.8,37,78.9,35.9,78.9L35.9,78.9z M30.8,92.1c-1.4-0.1-1.4-0.1-2-0.2c0.3-0.2,0.6-0.3,0.9-0.5
		c0.1-0.1,0.1-0.1,1-2.8c1.3-2.7,2.5-4.5,4.8-6.4c0.8-0.5,3.5-2.2,4.5-2c0.4,0.8,0.8,1.5,1.6,2.3c0.3,0.3,0.3,0.3,0.3,0.4h-0.2
		c-3.7,2.5-7.5,4.9-11.3,7.4c-0.2,0.1-0.3,0.2-0.5,0.4c0,0.4,0,0.5,0.6,0.5c1.6-0.9,1.6-0.9,12.9-6.8c0.2,1.1,0.4,2,1.1,3.1
		c0,0.6-3.6,2.4-4.2,2.7C37.3,91.4,34.3,91.9,30.8,92.1L30.8,92.1z M40.8,100.3c0-0.6,0-1.1,0.1-1.7c0.5-3.4,2.6-7.4,5.3-9.4
		c0.5,0.7,1.6,1.3,2.5,1.7V91C46.1,94.1,43.5,97.1,40.8,100.3L40.8,100.3z M40.1,102.5c0.4-0.5,0.8-0.8,0.7-1.4c0.3,0,0.3,0,0.5-0.1
		c0.2-0.3,2.7-2.7,3.8-4c1.8-1.8,3.6-3.7,5.4-5.5c0.3,0,0.3,0,0.5,0.1c0.5,0.9,1.1,1.9,1.7,3c-2.3,4.2-6.8,6.4-11.2,7.7
		C41.1,102.4,40.6,102.4,40.1,102.5L40.1,102.5z M55,107.9c-0.3-0.6-0.6-1.2-0.9-1.8c-0.4-1.1-0.7-2.1-0.9-3c-0.3-2.8-0.2-4.8,1-7.2
		c0.2,0,0.2,0,1.2,0.3c0.6,0,1.1,0,1.7,0.1C56.5,100.1,55.8,104,55,107.9L55,107.9z M55.4,110.1c0.2-0.9,0.2-0.9,0-1.6
		c0.2,0,0.2-0.1,0.4-0.2c1.1-4.1,2.2-8.1,3.2-12.3c0.4-0.1,0.4-0.1,1-0.2c0.5,0.4,1.2,0.8,2,1.1c0,0.9-0.1,1.9-0.3,3
		C60.9,103.1,59.1,109,55.4,110.1L55.4,110.1z M61.8,117.1c-2-2.8-2.4-5.6-2.8-8.8c2.4-3.2,3.5-7.1,3.8-11h0.1
		C61.9,116.5,61.9,116.5,61.8,117.1L61.8,117.1z M62.3,118.1c0-0.6-0.1-0.7-0.4-1c0.2,0,0.5,0,0.7,0c1.8-17.1,1.8-17.1,2-19.3
		c0.4,0,0.7,0.1,1.1,0.1c1.9,0,3.2-0.2,4.9-1.1c1,0.8,1.6,1.2,3,1.6c0.9,0.1,2,0.1,3.1,0.1c0.2,0.4,0.5,0.7,0.7,1.1
		c-3,1.7-5.7,1.4-8.7,0.3c-0.8-0.3-1.9-1.3-2.3-0.4c0.4,2.6,0.4,2.6,0.5,4.2v3.2C66.5,111.4,65.3,115,62.3,118.1L62.3,118.1z
		 M144,184.8c-0.2-0.1-0.5-0.2-0.7-0.2c0.5-0.5,0.6-1,0.9-1.5c0.6,0.2,1.3,0.5,2.2,0.6C145.8,184.6,145,184.6,144,184.8L144,184.8z
		 M146.6,182.5c-1.2-0.2-2.1-0.2-2.4-1.2c-0.4-0.3-0.4-0.2-0.7-0.2c-0.2-0.6-0.5-0.5-0.9-0.6c-1.8-1-0.9-3-0.9-4.5
		c-2-2.8-3.9-5.6-5.9-8.4c-0.3,0-0.6,0-0.9,0c-1.3,1.2-2.9,1.8-4.6,1.6c-0.4,0.2-0.4,0.4-0.4,0.8c-0.4,1-0.8,1.3-1.7,1.7
		c-0.3,0.3,0,0.5-0.2,1c-0.6,0.1-2.7,0.5-2.7-0.2c0.7-0.3,1.3-0.6,1.9-1.1V171c-0.5-0.5-1.6,0.1-2.2,0.2c-2.4,0-3.1-0.4-3.1-2.7
		c0.9-2.5,2.5-2.5,4.9-1.9c1,0,1.8-0.2,2.4-1.2c0.5-2-1.1-3.7-2.1-5.2c-4.3-5.7-8.9-11.7-14.1-16.5c1.4-2.1,1.2-4.1,1-6.4
		c0.4,0,1.9,0.8,2.4,1.1c0.6,0.2,1.2,0.5,1.9,0.7c1.2,2.5,2.5,4.9,4.9,6.7c-2.2,0-3.7-0.9-5.4-2c-0.5,0.1-0.4,0.1-0.4,0.6
		c1.2,1,2.2,1.9,3.9,2.5c0.5,0.1,0.9,0.2,1.4,0.3c1,1.4,3,2.6,4.7,3.3c-2.5,0.5-4.2-0.6-6-1.9c-0.2,0-0.3,0.1-0.4,0.1
		c-0.4,0.9,2.2,2.2,3,2.7c1.3,0.4,2.1,0.5,3.5,0.7c0.9,1.1,2,2.1,3.2,3.2c-1.6,0-3.5-1.1-4.7-1.7h-0.2c-0.2,0.2-0.4,0.2-0.2,0.7
		c1.8,1.2,3.3,2,5.5,2.6c1.1,0.7,2.2,1.5,3.5,2.2v0.1c-1.6,0.3-2.7,0.4-4.2,0c-0.6-0.2-1.9-1-2.2-1c-0.2,0.2-0.3,0.3-0.1,0.7
		c2,1.2,4.7,2.6,7.2,1.4c0.6,0.3,1.2,0.6,1.8,0.9c1.6,0.6,3.3,1.1,5.1,0.6c1.3-0.7,2-0.9,3.6-1.2c2.3-0.1,3.2-0.1,5-1.8
		c1.9-1.1,4.6-1.2,6.2,0.5c0.1,1.3,0,2.5-1,3.5c-0.2,1.1,0.9,0.4,1.5,0.1c-0.3,0.3-0.6,0.6-0.9,0.9c-0.9,0.5-1,0-1.6,0
		c-1.5,0.6-2.3,0.8-3.7,0.3c-0.3-0.2-0.3-0.2-0.5-0.3c-2.5,0-5.1-0.2-7.3,0.8c-0.6,0.4-1.1,0.6-0.7,1.3c1.4,0.7,3.9,0.5,5.6,0.5
		c1.5,0.4,2.8,1.3,4.5,1.8c1.5,0.1,2.2,0.3,3.5,1.4c0.3,1.6-0.3,3.7-1.8,4.6c-0.9,0.3-1.4,0-1.5,1c-0.5-0.1-0.7-0.2-0.9-0.5
		c-0.1-0.7-0.2-0.6-0.7-0.7c-0.6-0.4-0.8-0.8-0.7-1.4c-0.7-1-2.3-1.6-3.3-2.1c-1.2-0.4-5.4-1.8-6.2-0.8c0,0.7,2,2.5,2.5,3.2
		c0.4,0.5,0.7,1,1.1,1.5c0.2,0.1,1.4,0.3,2.2,0.6c1.2,0.6,1.9,1.5,2,3c-0.7,2.5-1.7,3.1-4.1,3.5c-0.2,0.2-0.2,0.2-0.2,0.6
		c0.7,0.4,1.5,0.5,2.4,0.4c0,0.1,0,0.2,0,0.2C146.8,182.4,146.8,182.4,146.6,182.5L146.6,182.5z M153.3,178.4c0.2-0.7,0.2-1.4,0.3-2
		c0.9,0.1,1.7-0.2,2.6-0.2C155.8,177.4,154.3,178.1,153.3,178.4L153.3,178.4z M153.9,175.4c-0.2,0-0.2,0-0.2-0.1c1,0,1.4,0,2.5-0.5
		c0,0.1,0,0.2,0,0.3C155.4,175.3,154.5,175.4,153.9,175.4L153.9,175.4z M127.5,175c-0.7-0.2-1.8-0.7-1.9-1.2c0.9,0.1,1.7,0,2.7-0.2
		c0.5,0.3,1,0.7,1.7,0.9C129.3,175,128.3,175,127.5,175L127.5,175z M158.8,164.9c-0.3-0.5-0.6-0.8-0.9-1.1c0.3-0.3,0.6-0.7,0.9-1
		C159,163,159.5,164.4,158.8,164.9L158.8,164.9z M35,184.4c-0.8-0.4-1.1-0.6-1.3-1.2l1.2-0.2c0.8-0.3,0.8-0.3,0.9-0.3
		c0.2,0.5,0.5,1,0.8,1.5C36,184.3,35.6,184.4,35,184.4L35,184.4z M33.3,182.1c0-0.1,0-0.2-0.1-0.3c0.7,0.1,1.5,0,2.2-0.2
		c0,0,0,0,0,0.1C34.6,182,33.8,182.1,33.3,182.1L33.3,182.1z M35.8,181.4c-0.1-0.7-1.1-0.6-1.6-0.7c-1.9-0.9-2.8-2-2.7-4
		c0.5-1.5,1-1.8,2.5-2.4c1.4-0.3,1.5-0.2,2.3-1.2c2.9-3.2,3-3.3,3.1-3.5c0-0.4,0-0.4-0.1-0.5c-1-0.8-5.2,0.5-6.2,1s-1.9,1-2.8,1.7
		c-0.4,0.5-0.2,1.7-1.3,1.7c-0.5,0.2-0.4,0.2-0.5,0.7c-0.4,0.3-0.6,0.4-1,0.5c0-0.2,0-0.3,0-0.4c-0.1-0.1-0.2-0.2-0.2-0.2
		c-2.5-0.4-3.3-2.7-3-4.9c0.7-0.6,1.1-1,2.1-1.3c0.6-0.1,1.1-0.1,1.7-0.2c1.3-0.5,2.8-1.3,4.2-1.7c1.6,0,4.2,0.3,5.7-0.6
		c0.3-1.7-4.4-1.9-5.1-2h-3.1c-1.5,0.9-2.9,0.7-4.2,0c-0.5-0.1-0.7,0-1,0.2c-0.8-0.4-1.3-1-1.8-1.5c0.1,0,0.8,0.8,1.6,0.7
		c0.2-0.2,0.2-0.5,0.2-0.6c-1.2-0.9-1.1-2.2-1.1-3.4c1.5-1.6,3.9-1.9,6-0.8c1.1,1,1.7,1.7,3.4,1.9c1.1,0,2.2,0.1,3.4,0.3
		c1.6,0.6,2.3,1.2,4.2,1.2c1.7-0.2,3.2-0.8,4.7-1.7c2.6,1,5.1,0.2,7.3-1.5c0.2-0.5-0.2-0.6-0.5-0.6c-1.9,1.2-4.1,1.5-6.2,0.9
		c1-0.6,2.7-1.3,3.5-2.2c1.9-0.4,4.2-1.3,5.6-2.7c0-1.1-0.9-0.2-1.3,0c-0.7,0.3-3.4,1.5-3.8,1.2c1.1-1,2.3-2.1,3.3-3.2
		c2.5,0,4.9-0.9,6.5-2.9c0-0.5-0.3-0.5-0.5-0.5c-2,1.3-3.6,2.3-5.9,1.9c1.8-0.8,3.4-1.7,4.7-3.3c2.2-0.5,3.4-1.3,5.1-2.7
		c0.3-0.5,0-0.7-0.4-0.7c-1.8,1-3.3,2-5.4,2c2-1.5,4.1-4.4,4.9-6.8c1.4-0.4,2.9-1,4.3-1.8c-0.2,2.4-0.4,4.2,1,6.5
		c-5.1,5.1-9.6,10.6-13.9,16.4c-1.2,1.9-4.1,5.3-0.5,6.4c1.5,0,2.6-0.8,4.2,0c1.1,1,1.7,1.9,1.1,3.6c-1.2,1.6-3.2,0.8-4.8,0.6
		c-0.1,0.1-0.2,0.1-0.2,0.2c0,0.7,1.1,1.2,1.9,1.5c0,0.7-2.4,0.3-2.7,0.2c0-0.2,0-0.5,0-0.8c-0.4-0.4-0.7-0.5-1-0.6
		c-0.7-0.8-0.8-1.1-1-2c-0.5-0.3-1.1-0.1-1.6-0.1c-1.4-0.3-2.4-0.8-3.3-1.6c-0.3,0-0.6,0-0.9,0c-2,2.8-3.9,5.6-5.9,8.4
		c0.1,1.5,0.7,3.6-0.9,4.5c-0.5,0.1-0.7,0-0.9,0.5C35.8,180.9,36,180.6,35.8,181.4L35.8,181.4z M26.6,178c-1.5-0.5-2.3-1-2.7-2.3
		c0.8,0.2,1.6,0.3,2.6,0.2c0,0.6,0,1.3,0.3,2C26.8,178,26.8,178,26.6,178L26.6,178z M25.3,175c-0.5-0.1-1-0.2-1.4-0.3
		c0-0.1,0-0.2,0-0.2c0.8,0.3,1.5,0.5,2.5,0.5v0.1L25.3,175z M51.8,174.8c-0.5-0.1-1.5-0.3-1.7-0.5c0.5-0.2,1.2-0.5,1.7-0.9
		c0.8,0.1,1.7,0.3,2.7,0.2C53.8,174.5,52.9,174.6,51.8,174.8L51.8,174.8z M21.1,164.5c-0.4-0.9-0.2-1.4,0-2.1h0.1
		c0.2,0.2,0.7,0.5,0.8,1C21.8,163.8,21.4,164.1,21.1,164.5L21.1,164.5z M124.6,127.8c-0.4-0.5-0.7-1-1.1-1.5c-1.7-2.9-3-5.5-3.1-8.7
		c1-1.1,1.6-3.5,2-4.9c0.1-0.7,0.2-1.5,0.4-2.2c0.2,0.1,0.3,0.2,0.5,0.4c-0.1,0.6-0.2,1.2-0.3,1.9c-0.2,3.4,0.1,6.7,0.6,10.2
		C124,125.3,124,125.3,124.6,127.8L124.6,127.8z M137.9,142c-1.8-2.6-3.5-5.1-5-7.6c-0.6-1.2-1.2-2.4-1.9-3.6
		c-1.5-3.2-2.7-6.3-3.6-9.6c-0.4-2.3-0.8-4.6-1-6.8c0-0.5,0.1-1.7-0.2-1.9c-0.2-0.5-0.4-1-0.5-1.5c1.4-1.9,2.2-3.6,2.9-5.7
		c0.2-1,0.4-2.1,0.5-3.1c0-0.7,0-1.4,0-2.1c-0.4-2-0.4-2-0.3-2c0.8,0.7,0.8,0.7,0.9,0.9c-0.2,5.3,0.2,10.4,1,15.7
		c0.7,3.8,1.6,7.7,2.7,11.7c0.6,2,1.2,3.9,1.8,5.9c0,0,0.6,2.1,1.2,1c-0.8-2.6-0.8-2.6-1.3-4.2c-1.1-5.3-1.6-10.5-2-15.7
		c-0.2-4.2-0.3-8.2-0.4-12.2c0.9,0.4,1.7,0.8,2.6,1.2c1.8,3.6,2.3,7.7,2.9,11.8c0.4,4.5,0.5,9.1,0.5,13.7c-0.1,2-0.2,3.9-0.2,5.9
		c-0.4,5.4-0.5,6.3-0.6,7.4C138,141.9,138,141.9,137.9,142L137.9,142z M156.8,134.4c-2.8-0.5-4.6-1.4-6.6-3.1
		c-0.5-0.5-1-0.9-1.4-1.4c-2.2-2.4-3.7-5.1-5.3-7.7c-0.5-1-1-2-1.5-2.9c-0.1-1.2-0.2-2.5-0.3-3.8h0.1c1.9,4.7,4.3,9,7.9,12.9
		c2,1.9,4.7,4.4,7.6,5.3c0.3-0.2,0.3-0.3,0.3-0.6c-2.3-2-4.4-4-6.1-6.2c-1-1.6-1-1.6-2-3.2c-3.5-6.4-5.7-13.3-7.9-20.1
		c0-0.2,0.1-0.5,0.2-0.7c2,3.9,3.9,7.9,5.9,12.1c0.2,1.3,0.7,2.7,1.2,4.2c2.3,5.9,5.4,11.1,10.9,14.8
		C158.6,134.3,157.8,134.3,156.8,134.4L156.8,134.4z M165.8,127.4c-0.2-0.4-0.3-0.6-0.5-0.8c-2.7-2-5.4-4.1-7.7-6.2
		c-2.7-2.7-5.2-5.3-7.5-8.1c-0.7-1-1.5-2-2.1-3c-2.5-3.9-5.1-8.4-6.2-12.7c-0.9-2.4-1.8-4-3.4-5.7c0.7,0,2.4,0.9,3.2,1.4
		c0.2,0.2,0.4,0.4,0.7,0.6c7.3,8.4,13.6,17.9,20,27.1h0.4c0-0.1,0.1-0.1,0.2-0.2c-0.4-2.3-1.5-4.3-2.5-6.2c-4-7.3-8.6-14-13.2-20.5
		c1.4,0,2.8,0,4.2-0.1c0.9-0.2,1.1-0.3,1.2-0.3c5.1,4.2,10.7,7.2,17.3,9c0.6,0.1,5.3,1.3,5.8,0.7V102c-0.1-0.1-2.7-1-4.8-1.9
		c-5.2-2.6-10.6-5.5-14.9-9.1c1.1,0.5,2.3,1.1,3.4,1.6c5.2,4,10.8,7.2,17.3,9.2c0.9,0.2,1.7,0.4,2.7,0.6c-2.4,0.6-4.7,1-7.1,1.2
		c-3.3,0-6.2-0.4-9.2-1.1c-1.7-0.5-3.3-1.2-4.7-1.8c-0.8-0.4-2.2-1.4-3.1-1.4c-0.2,0.3-0.2,0.2-0.2,0.7c0.8,0.8,1.6,1.7,2.4,2.5
		c1.5,1.9,2.9,4.1,4.2,6.3c1.6,3.4,2.7,6.5,3.6,10.3c0.2,1.6,0.5,3.3,0.6,5.1C165.8,125.3,165.8,126.4,165.8,127.4L165.8,127.4z
		 M170.8,92.1c-0.8-0.1-1.5-0.1-2.3-0.2c-5.9-0.7-10.5-2.3-15.1-5.8c-1.8-1.6-4.1-3.6-5-5.7c0.2,0,0.4-0.1,0.6-0.2
		c4,3.2,8.8,4.8,13.8,6.4c3.1,0.9,3.1,0.9,5.3,1.5c0.1-0.1,0.2-0.2,0.3-0.2c0-0.3,0-0.3-0.1-0.5c-5.7-2.3-11.8-4.5-16.8-7.9v-0.1
		c0.2,0,0.5,0,0.7,0.1c3.8-0.1,7.7-0.1,11.6,0.7c0.2,0.1,0.2,0.1,2.2,1c1.3,0.7,2.6,1.3,3.9,2c3.8,2.2,7.2,4.6,10,8.4
		c0,0.1,0,0.2,0.1,0.2c-0.2-0.1-0.3-0.1-0.5-0.2c-0.5,0-1.8,0.2-4.2,0.5C173.8,92,172.3,92.1,170.8,92.1L170.8,92.1z M155.1,76.9
		c1.1-1.2,1.1-1.2,1.5-1.7c0-0.5-0.5-0.6-0.6-0.9c2.2-0.2,4.4-0.5,6.7-0.8c4.3,0.5,8.6,0.8,13.1,0.5
		C169.3,76.6,162.1,76.9,155.1,76.9L155.1,76.9z M152.8,72.6c-1.9-0.8-3.5-1.2-5.3-1.7c9.1-1.9,18.3-3.2,27.7-4.2
		c0.1-0.1,0.2-0.1,0.2-0.2v-0.4c-0.2-0.2-0.3-0.2-0.4-0.2c-5.7,0.5-11.5,1.1-17,1.6c-7.9,0.8-7.9,0.8-8.6,0.8
		c1.3-1.2,2.5-2.8,3.3-4.3c4-0.6,8-0.9,12.3-0.9c0.7,0.1,3.2,0.2,5.2,0.4c2.4,0.6,4.7,1.3,7.1,2.6c-1.1,0.2-1.3,0.3-2.1,0.9
		C168.4,70.5,160.3,72.3,152.8,72.6L152.8,72.6z M153.5,61.9c0-0.1,0-0.2,0-0.3c3.5-0.8,6.5-1.9,9.6-3.8c2-0.4,4-0.8,6.1-1.3
		c1.2-0.4,2.4-0.9,3.7-1.3c-0.4,0.4-0.8,0.8-1.2,1.2c-2.4,2.1-5,3.5-8,4.4c-1,0.2-2,0.4-3,0.7C158.3,61.8,155.8,61.9,153.5,61.9
		L153.5,61.9z M152.4,60.3c-2-1-4.4-1.1-6.4-1.3c7.4-3.5,14.8-6.9,22.4-10.2c-0.1-0.2-0.2-0.5-0.3-0.7c-0.2,0-0.5,0.1-0.7,0.2
		c-6.3,2.3-12.5,4.6-18.7,7.2c-2.7,1.2-2.7,1.2-2.7,1.1c3.5-3,7.4-5.6,11.4-7.8c2.7-0.7,5.2-1.5,8.1-1.6c1.4,0,2.9,0,4.3,0.2
		c-0.2,0.1-0.3,0.2-0.4,0.3c-1.5,2.5-3.3,4.8-5.4,6.9c-0.7,0.6-1.5,1.1-2.2,1.7c-2.6,1.7-5.2,2.9-8.2,3.8
		C153.3,60,152.8,60.1,152.4,60.3L152.4,60.3z M146.8,54.3c0.2-1,0.5-2.2,0.7-3.1c1.9-1.9,3.9-3.9,5.7-5.8c2.8-1.5,5.7-3.1,8.2-5.1
		c1.3-1.2,1.3-1.2,1.6-1.3c-1.5,3.7-4.6,6.2-7.5,8.8C152.5,49.9,149.6,52.1,146.8,54.3L146.8,54.3z M138.5,49.9
		c6.4-5.8,12.8-11.7,19.2-17.5c-1.7,6.4-5.7,11.8-10.4,16.3c-0.1,0-0.2-0.1-1.2-0.3c-2,0-3.6,0.2-5.4,0.7
		C139.8,49.4,139.1,49.6,138.5,49.9L138.5,49.9z M137.1,49c0.1-1,0.1-2.2,0-3.1c2.9-2.6,5.7-5.3,8.2-8.2c2.7-2.2,5.4-4,8.4-5.7
		c1-0.5,2-0.9,2.9-1.3c1.9-0.7,1.9-0.7,2-0.7c-0.6,0.7-0.6,0.8-0.9,1.7c-0.2-0.3-0.4-0.2-0.5-0.2C150.4,37.3,143.6,43,137.1,49
		L137.1,49z M136.8,44.9c-0.4-1.4-0.9-2.8-1.7-3.9c0,0-0.1,0-0.2,0v-0.1c5.3-4.9,10.4-10.2,15.4-15.3v0.1c-2,4.3-4.4,8.2-7.2,12.1
		C141.3,40.3,139.1,42.5,136.8,44.9L136.8,44.9z M43.1,44.5c-2.4-2.4-2.4-2.4-3.7-3.9C37,37.8,35,34.9,33.1,32
		c-0.7-1.2-1.3-2.3-2-3.4c-1.6-3.4-1.6-3.4-1.6-3.5c5,5.1,10.1,10.2,15.4,15.4c-0.3,0.3-0.5,0.7-0.8,1.1
		C43.9,42.6,43.5,43.5,43.1,44.5L43.1,44.5z M42.9,48.8c-6.4-5.9-13.1-11.7-19.7-17c-0.2-0.1-0.5-0.2-0.6-0.4
		c-0.2,0.1-0.3,0.1-0.4,0.2c-0.2-1-0.4-1.2-1-1.8c4.9,1.4,9,4.2,13.1,7.4c1.4,1.2,2.9,3,4.4,4.5c1.4,1.3,2.9,2.6,4.3,3.9
		C42.9,48.1,42.9,48.1,42.9,48.8L42.9,48.8z M41.5,49.6c-0.4-0.2-0.7-0.3-1.1-0.5c-2.1-0.6-5.7-1.7-7.5-0.7
		c-0.8-0.8-1.7-1.6-2.5-2.4c-1.7-1.8-3.1-3.7-4.3-5.6c-0.9-1.5-1.7-3-2.3-4.4c-0.1-0.2-1.5-3.7-1.4-3.9
		C41.5,49.5,41.5,49.5,41.5,49.6L41.5,49.6z M33.3,53.9c-0.1-0.2-0.1-0.2-5.9-4.4c-3.5-2.7-6.6-5.3-9.1-8.6
		c-0.5-0.9-0.5-0.9-1.1-2.3c3,2.5,6.2,4.4,9.8,6.4c2,2.1,2,2.1,4.3,4.5c1.2,1.2,1.2,1.2,1.5,1.3C32.9,51.9,33.1,52.9,33.3,53.9
		L33.3,53.9z M27.5,59.9c-2.6-0.7-4.8-1.6-7-2.7c-0.8-0.5-1.5-1-2.3-1.4c-2.7-2.1-4.4-3.9-6.3-6.5c-0.5-0.7-0.9-1.5-1.3-2.2
		c-0.4-0.2-0.4-0.2-0.4-0.2c2.2-0.2,4.4-0.2,6.7,0c0.8,0.1,1.6,0.3,2.4,0.5c1.7,0.5,2.7,0.8,3.3,0.9c3.3,1.9,6.5,4.2,9.8,6.5
		c1.6,1.3,1.6,1.3,1.5,1.4c-7.2-3.1-14.6-5.9-21.9-8.5c-0.1,0.2-0.2,0.5-0.3,0.7c7.4,3.3,15,6.5,22.4,10.2
		C31.8,58.9,29.8,59.3,27.5,59.9L27.5,59.9z M23.8,61.5c-6.3-0.5-12.3-1.8-16.5-6.7c0.1,0,1.1,0.4,3.7,1.3c1.9,0.5,3.9,0.9,5.9,1.3
		c0.7,0.4,1.3,0.7,2,1.2c2.4,1.1,4.8,2,7.6,2.5c0,0.1,0,0.2,0,0.3C25.6,61.5,24.8,61.5,23.8,61.5L23.8,61.5z M26.3,72.4
		c-1.3-0.2-2.6-0.3-3.9-0.4c-5.3-0.8-10.4-2-15.2-4c-1.1-0.6-2.2-1.2-3-1.8c-0.5-0.1-1-0.2-1.5-0.4c2-0.9,2-0.9,4.2-1.8
		c0.8-0.2,1.6-0.5,2.4-0.7c2.6-0.5,5.4-0.6,8.1-0.6c3.3,0.2,6.5,0.5,9.9,1c0.7,1.6,1.9,3,3.3,4.3c-0.2,0-4.3-0.4-19.4-1.7
		C7,65.8,7,65.8,4.8,65.6c-0.1,0-0.2,0.1-0.2,0.2s0,0.3,0,0.4c0.1,0.1,0.2,0.1,0.3,0.2c9.2,0.9,18.4,2.2,27.6,4.2
		c-1.9,0.5-3.6,1-5.3,1.7C26.9,72.4,26.6,72.4,26.3,72.4L26.3,72.4z M21.5,76.6c-6-0.3-11.7-0.8-17.3-2.9c2,0.1,4.2,0.2,6.4,0.1
		c3-0.2,3-0.2,6.8-0.6c3.4,0.4,3.4,0.4,6.7,0.7c-0.5,0.4-0.6,0.3-0.7,0.9c0.9,1.1,0.9,1.1,1.4,1.6C23.6,76.6,22.6,76.6,21.5,76.6
		L21.5,76.6z M6,91.9l-2.6-0.2c-1.2-0.2-2.3-0.5-3.4-0.2c0-0.6,1.8-2.4,2.2-2.8c0.6-0.5,1.2-1.1,1.8-1.7c3.3-2.5,6.5-4.5,10.3-6.3
		c0.7-0.3,1.3-0.6,2-0.9c2.7-0.4,5.3-0.7,8.1-0.8c1.2,0,2.7,0.2,4.1,0v0.1c-5.1,3.5-11.2,5.7-16.8,8c-0.1,0.2-0.2,0.2,0,0.6
		c0.2,0,0.3,0,0.5,0c6.3-1.7,12.8-3.5,18.2-7.4c0.5-0.5,0.4-0.5,1.2-0.2c-1.2,1.7-2.4,3.2-3.9,4.7c-1.8,1.5-3.7,2.7-5.7,3.8
		c-1.6,0.7-3.2,1.3-4.7,1.8c-2,0.5-4,0.9-5.9,1.1C9.5,91.8,7.6,91.9,6,91.9L6,91.9z M14.3,127c0-1.4,0-2.8,0-4.2
		c0.4-4.3,1.4-7.9,2.9-11.8c0.9-1.9,0.9-1.9,1.8-3.7c1.4-2.1,2.7-4,4.3-5.9c1.6-1.7,1.6-1.7,1.8-1.9c-0.2-0.6-0.4-0.6-0.7-0.5
		c-2,1.1-4.1,2-6.2,2.8c-2.7,0.8-5.2,1.2-7.8,1.5H7c-2.2-0.2-4.4-0.5-6.4-1.1c2.2-0.5,2.2-0.5,3.7-0.9c5.1-1.7,9.5-4.2,14-7.2
		c0.8-0.6,1.6-1.2,2.4-1.8c2.7-1.2,2.7-1.2,3.3-1.6c0,0,0,0,0,0.1c-5.4,4.1-11.4,7.6-17.7,10.3c-2,0.7-2,0.7-2.2,0.8
		c0,0.1,0,0.2,0,0.4c0.7,0.6,6.1-0.8,7.2-1.1c0.9-0.3,1.7-0.6,2.6-0.9c4.7-1.8,9.2-4.4,13.2-7.7c0.6,0,1.6,0.3,2.5,0.4
		c2.1,0,3-0.1,3.1,0c-4.6,6.5-9.1,13.1-13,20c-1.1,2.2-2.2,4.2-2.7,6.7c0,0,0.1,0.1,0.1,0.2c0.2,0,0.3,0,0.5,0
		c4.8-7,9.7-14.1,14.8-20.9c1.9-2.5,3.7-5.1,6.1-7.1c2.8-1.1,2.8-1.1,2.9-1.1c-1.4,1.6-2.3,3-3.1,5c-0.8,3.3-2.5,6.6-4.1,9.6
		c-2,3.5-4.4,6.7-7,9.8c-1.5,1.7-1.5,1.7-3.3,3.6c-3,2.7-6.2,5.4-9.5,7.8C14.4,126.6,14.4,126.6,14.3,127L14.3,127z M22.4,133.9
		c-0.8-0.1-1.4-0.3-2-0.5c4.3-2.7,7-6.4,9.3-10.9c1.1-2.4,2.6-5.5,2.9-8c1.9-4.1,3.9-8.1,5.9-12.1c0.1,0.3,0.1,0.3,0.2,0.7
		c-2.5,7.6-4.9,15.5-9.2,22.3c-1.7,2.3-1.7,2.3-2.3,3.1c-0.8,0.8-1.6,1.6-2.4,2.4c-1.7,1.5-2,1.6-2,1.7c0,0.2,0,0.3,0.1,0.5
		c0.2,0,0.3,0,0.5,0c3.4-1.8,5.8-3.7,8.4-6.6c0.7-1,1.4-1.9,2.1-2.8c1.9-2.9,3.3-5.7,4.7-8.8c-0.1,1.3-0.2,2.5-0.3,3.9
		c-0.6,1.2-1.2,2.5-1.8,3.7c-2.8,4.8-6.3,9.9-12,11.3C23.6,133.9,23,133.9,22.4,133.9L22.4,133.9z M55.4,127.4
		c0.4-1.6,0.4-1.6,0.9-3.6c0.8-4.4,1.4-9.1,0.5-13.3c0-0.1,0-0.1,0.5-0.4c0.3,2.4,1,4.8,2.3,7.1C59.4,121,57.8,124.4,55.4,127.4
		L55.4,127.4z M42.1,141.6c0.1-0.5,0.1-1,0.1-1.5c-0.5-3.7-0.6-7.3-0.8-10.9c-0.1-8.4-0.1-17.3,2.5-25.2c0.3-0.6,0.5-1.2,0.8-1.9
		c0.9-0.4,1.7-0.8,2.6-1.2c-0.1,2.6-0.1,5.2-0.2,7.8c-0.4,8.1-0.9,16.4-3.5,24.3c0.1,0.4,0.4,0.5,0.7,0.2c1.7-4.6,3-9.6,4-14.3
		c0.8-4,1.4-7.8,1.8-11.7c0.2-2.9,0.2-5.7,0.1-8.4c0.3-0.3,0.6-0.6,1-0.8c-1.1,4.7,0,8.9,3,12.9c-0.2,0.7-0.4,1.2-0.7,1.7l-0.1,2.6
		c-0.7,7.4-3.6,14.1-7.4,20.6C44.9,137.8,43.5,139.9,42.1,141.6L42.1,141.6z M74.3,41c-2.1-0.4-2.5-0.9-3.5-2.4
		c0.5,0.2,1.1,0.4,1.7,0.5c-0.2,0.2-0.1,0.2-0.1,0.5c1,0.7,2.2,0.6,3.6,0.6c3.3-0.6,6.8-1.9,10.2-1.8c-0.2,0.3-0.3,0.5-0.5,1
		c-0.5,0-1.1,0-3,0C79.8,39.9,76.9,40.8,74.3,41L74.3,41z M73.4,39.3c0.8-0.1,1.7-0.3,2.5-0.6c3.5-1.7,6-3.6,10.1-2.5
		c0.4,0.2,2.4,1,2.5,1.4c-2.4-0.8-3.9-0.8-6.2-0.4C79.3,37.9,76.5,39,73.4,39.3L73.4,39.3z M92.3,41.1c-1.8-0.7-4-1.5-5.8-0.8
		c0.2-2,1.3-0.9,2.6-1.3c1.2-0.7,0.7-1.5,0.1-2.3c-1.5-1.1-2.9-1.7-4.5-1.9c-1,0-2,0.1-2.9,0.1c-0.3-0.4-0.5-0.7-0.8-1
		c-2.6-2.3-6.9-2-10-1.4c0-2-0.1-3.5,1-5c1.6-1.2,3.5-0.8,5.5-0.3c1.2,0.4,2.3,1.3,3.5,2.2c2.6,2.7,4.1,4.4,4.4,4.5
		c2.6,0.9,4.9,2.2,6.7,4.7C92.3,39,93.3,40.8,92.3,41.1L92.3,41.1z M79.9,27.3c-0.8-0.5-1.5-0.9-2.2-1.1c1.5-2.2,3-3.3,5.6-3.9
		c3.6-0.4,7.3,0.5,11,1.2c3.1,0.3,5.7,0.7,8.4-1.2c0,0.3,0.3,1.2,0.1,1.7c-2.6,1.1-5.9,0.8-8.5,0.8c-4.7-0.5-4.7-0.5-9-1
		c-3,0-5,0.2-5.3,3.5H79.9L79.9,27.3z M101.6,28.9c-4.9-0.5-9.2-2.1-13.8-3.5c4.8,0.6,9.6,1.4,14.5,1.7c1,0.1,2.2,0.3,3.4,0.1
		c0,1.5-0.5,1.3-1.8,1.7C103.1,28.9,102.3,28.9,101.6,28.9L101.6,28.9z M87.3,71.5c0,0-0.1-0.1-0.2-0.1c-0.9-3.3,0.2-5.7,2.4-8.1
		c-1.1,0-0.7-2.7-0.7-3.3c0.3-0.9,0.5-1.7,0.9-2.5c1.5-2.6,3.4-5,4.3-7.8c0.1-0.6,0.1-1.1,0.7-1.1c0.9,0.9-0.3,3.7-0.7,4.7
		c-1.6,2.8-3.3,5.4-4.1,8.6c-0.1,0.3-0.1,0.6-0.2,0.9c0,0,0.1-0.1,0.2-0.1s0.5,0.2,0.5,0.5c-0.1,0-0.1,0.1-0.2,0.2
		c-1.1,2.5-1.9,5.1-2.5,7.7C87.5,71.5,87.3,71.5,87.3,71.5L87.3,71.5z M75,68.9c-0.7-0.2-1.6-0.3-1.1-1c0.2-0.1,0.7-0.1,1.8-0.3
		c2.4-1.2,4-3.1,5.7-5.1c2-2.8,3.4-4.9,3.6-5h1.7c0.2,0.2,0.1,0.1,0.2,0.6c-2.3,4-5.4,8.8-10,10.6C76.1,68.9,75.5,68.9,75,68.9
		L75,68.9z M90.8,66.9c-1.2-0.6-0.1-3.9,0.2-4.7c0.3-0.7,0.6-1.4,0.9-2c3.6-7,7.9-14,6.7-22c-0.2-1.3-0.7-2.5-1-3.6
		c0-0.1,0.1-0.1,0.1-0.2c0.1,0,0.2,0,0.4,0c0.8,0.8,1.5,3.1,2,4.4c0.4,1.7,0.4,1.7,0.7,3c0.1,1.6,0.1,3.3-0.1,5
		c-1.2,5.4-4.1,9.5-7.2,14.1c-0.9,1.5-1.6,3-2.1,4.7C91.3,66.1,91.3,66.5,90.8,66.9L90.8,66.9z M73.4,67.4c3,0.9,6.9-4.2,8.4-6.1
		c0.8-1,1.5-2.1,2.3-3.2c0-0.5-0.1-0.9-0.5-0.9c0-0.4,0.5-0.2,0.8-0.2c2.7-1.1,4.8-1.9,6.6-4.3c1.6-2.7,1.6-6.2,1.3-9.1
		c-0.2-0.7-1.3-1.2-1.9-1.2c-0.2,0.2-0.3,0.3-0.5,0.5c0.1,0.6,0.2,1.3,0.3,1.9c0.1,4.1-0.9,8-4.4,10.5c1-1.2,1.8-2.3,2.6-3.6
		c1.7-3.4,1.9-7.3-0.2-10.4c1,0,2.3,0.5,3.4,0.9c2.6,0,1.8-2.4,1.2-4c-1.8-2.6-4.4-4.2-7.3-5.2c-1.6-1.9-3.3-3.5-4.9-5.1
		c0,0-0.1,0-0.1-0.1v-0.1c0.5-0.3,0.4-1.2,0.5-1.7c0.8-0.5,1.2-0.6,2.3-0.8c-0.8,0.5-1.2,1-1.4,2c0,0.4-0.2,0.9,0.5,0.9
		c0.8-0.5-0.1-1.8,1.4-1.7c-0.4,2.8,1.5,4.2,4.1,5.2c0.1-0.1,0.2-0.2,0.3-0.2v-0.4c-1-0.9-3.6-2.9-2.3-4.2c0.2,0,0.5,0.1,0.7,0.2
		c0.2,1.5-0.4,2.5,1.4,3.3h0.7c0.3-0.5-0.1-1.3-0.2-1.7c0-0.3,0-0.5,0-0.8c0.2-0.1,1.3,0.4,1.7,0.5c0.1,0.2-0.1,0.8-0.3,1.1
		c-0.5,0.3-0.7,0.2-0.7,0.9c0.7,0.5,2.6-0.5,3.2-1.2c0.1,0,0.1,0,2.8,0.9c1.8,0.5,3.7,1,5.7,1.3c1,0.1,2,0.1,2.9,0.2
		c0.2,0.7,0.4,1.3,0.6,2c0.5,2.5,0.7,4.8,0.7,7.5c-0.3,4.6-1,9-0.6,13.7c-0.7-1.5-0.5-3.1-0.5-4.6c0.5-5.9,1.4-12.6-1-18
		c-0.7-0.2-1.7-0.6-2.2-0.6c-0.3,0.3-0.3,0.5,0.1,1c1.1,2.5,1.3,5.1,1.5,7.9c0.1,3.9,0,7.8,0.3,11.8c0,0.3,0.5,4.3,1.8,2.8
		c0.1,0.4,0.2,0.7,0.3,1.1c-0.8,0.2-0.9-0.3-1.5-0.3c-0.1,0.1-0.2,0.2-0.3,0.3c-0.3,4.8-1.5,10.7,4.9,11.8c-0.5,1.6-1.1,2.7-2.5,3.8
		c-4,0-5.3-4.7-6.1-7.7c-0.5-0.5-0.7,0-0.8,0.3c-0.2,2.6-0.5,7.9-2.9,9.7c-1.9-3.5-2.3-7-2.7-10.7c-0.9-1-1.1,1.5-1.2,1.9
		c-1.1,3-3.3,5.9-6.2,7.5c-0.2-1.3-0.2-1.3-0.3-2.6c0-2.9,0.1-5.6,0.9-8.3c0-0.2-0.1-0.3-0.1-0.4c-0.3-0.1-0.3-0.1-0.5,0
		c-0.2,0.3-0.7,1.3-1.2,2.1C83.6,65.3,72.3,73.6,73.4,67.4L73.4,67.4z M95.9,72.4c-0.1-0.1-0.2-0.2-0.2-0.2c0-3,0.1-6,0.7-8.9
		c0.2-0.2,0.2-0.1,0.5-0.2c1.4,0.9,0.3,6.2,0,7.6C96.6,71.5,96.8,72.3,95.9,72.4L95.9,72.4z M106.4,68.9c-1-0.2-1-0.2-1.9-0.4
		c-2.9-1.3-3.3-2.8-3.8-5.5c0-2.8,0.4-5.3,0.9-8c0.6-0.2,0.6-0.2,0.7-0.2c0.3,0.4,0.9,0.8,1.1,1.5c-0.6,3.7-1.9,8.6,1.9,11.1
		c1,0.5,1,0.5,2,0.7C107.6,68.9,107,68.9,106.4,68.9L106.4,68.9z M97.5,22.8c-3.2-0.3-6.5-1-9.6-1.5c-2.2-0.2-5-0.4-6.9,0.6
		c-0.1,0-0.1,0-0.2,0c-0.2-0.8-0.4-1.7-0.6-2.5c6.2,0.5,12.7,0.6,19.1,0c-0.3,1.1-0.5,2.2-0.8,3.4C98.1,22.8,97.8,22.8,97.5,22.8
		L97.5,22.8z M88.3,18.8c-2.8-0.3-5.7-0.7-8.4-1.2c-0.2-0.6-0.3-1.1-0.5-1.7c5,0.2,5,0.2,9.9,0.3v-0.8c-0.6,0-5.7-0.3-5.4-0.5
		c0-0.5-0.1-1-0.1-1.5c0.3-1.2,1-2.4,1.3-3.6c0-1.7-0.4-3.1,0.2-4.6C86,4.5,87,4.4,88.1,4.3c0-0.2,0-0.5,0.1-0.8
		c-0.9-0.1-0.9-1.2-0.4-1.5c0.9,0,0.9,0,1-0.1C89,2,89.1,2.1,89.1,2.2c0.1,0,0.3,0,0.5,0c0-0.1,0.1-0.1,0.2-0.2
		c-0.1-0.8-0.2-1.2,0-1.9H90c0.1,0.4,0.1,0.7,0.1,1.2c-0.1,0.5-0.4,0.9,0.4,0.9c0.2-0.1,0.2-0.1,0.2-0.2c1,0,1.4-0.2,1.4,1
		c-0.1,0.2-0.4,0.4-0.6,0.5c0,0.2,0,0.5,0,0.8c0.8,0,2,0.2,2.8,0.8c0.2,1,0.6,3.3,0.2,4.2c0,0.5,0.2,1,0.5,1.7
		c0.5,1.2,1.2,2.2,0.8,3.7c0,0.1,0,0.1,0.1,0.2c-1.9,0.2-3.8,0.3-5.6,0.4V16c3.2,0,6.6,0.1,9.9-0.3c-0.1,0.5-0.2,1.2-0.5,1.7
		c-2.8,0.5-5.6,0.9-8.3,1.1C90.3,18.8,89.3,18.8,88.3,18.8L88.3,18.8z M87.1,15.1c-1.3-1.6-1.6-1.9-1.2-3.7c0.5-1,1-2.1,1.3-3.1
		c0.2-0.1,0.2-0.1,0.5-0.1c0.2,0.3,0.5,0.6,0.7,0.8c0,2-2.2,3.4-0.8,5.6C87.8,15,87.4,15.1,87.1,15.1L87.1,15.1z M92,15.1
		c-0.3-0.3-0.2-0.4-0.2-0.5c1-2-0.3-3.5-0.9-5.3l-0.1-0.1c-0.6,0.2-1.2,0.2-1.7,0.2c-0.7-0.7,0.3-0.8,0.8-0.9C91,7.6,90.9,6,90,5.2
		c-0.8-0.1-1.2-0.2-1-0.8c1.1-0.5,2.6,0.5,3.2,1.5c0.2,0.7,0.3,1.5-0.2,2.2c0.5,0.7,0.9,1.9,1.4,3c0.6,2,0.4,2.4-1,4
		C92.3,15.1,92.3,15.1,92,15.1L92,15.1z M83.1,15.1c-1.4-0.3-2.8-0.5-4.2-0.8c-0.2-0.2-0.2-0.2-1-2.6c-1.1-2.2-2.1-4-3.6-5.7
		c1.3,0.2,3,1.1,4.2,1.9c1,0.9,1.9,2.3,2.6,3.6c0.1,0.1,0.2,0.1,0.5,0.1c0.4-0.4-0.1-1.2-0.2-1.5c-0.2-1-0.3-2.2,0.5-2.7
		c1-0.1,2.4,0.4,2.2,1.8c-0.6,1.4-1.4,2.8-1.4,4.3C82.8,14,82.9,14.5,83.1,15.1L83.1,15.1z M96.4,15.1c0.2-0.5,0.3-0.9,0.5-1.3
		c0-1.7-0.7-2.9-1.2-4.2c-0.3-1.3,0.2-1.6,1.2-2.1c0.2,0,0.7-0.1,1.1,0.2c0.5,1.3,0.3,2.3-0.3,3.7c0.5,1.5,2-1.8,2-1.9
		c0.4-0.3,0.7-0.7,1-1.1c1.1-1,3-2.1,4.7-2.2c-0.4,0.5-0.7,0.9-1.1,1.4c-1.5,2.2-2.4,4.3-3.4,6.8C98.6,14.8,98.6,14.8,96.4,15.1
		L96.4,15.1z M73.3,90.4c-4.2-0.6-8-1.4-11.7-3.1c-0.7-0.5-1.5-0.9-2.2-1.3c-0.8-0.6-5-3.5-3.8-4c0.6,0,2.5,1.1,3.2,1.5
		c2.3,0.9,2.3,0.9,3.7,1.3c2.7,0.7,5.4,1.3,8.3,1.3c0.2-0.1,0.3-0.2,0.7,0.1c0.8,1.2,1.6,2.4,2.4,3.6C73.8,90.3,73.5,90.4,73.3,90.4
		L73.3,90.4z M55.5,70.6c-1.4-2.9-2.8-5.9-4.2-8.8c8.2,0.2,8.2,0.2,8.8,0.3c-0.8,1.1-3.2,1.4-4.3,1.6c-0.1,0.2-0.2,0.3-0.4,0.5
		C55.9,66.3,56.3,68.4,55.5,70.6C55.6,70.6,55.5,70.6,55.5,70.6L55.5,70.6z M44.3,66.9c-0.6-0.1-1.2-0.1-1.7-0.2
		c7.4-4.4,7.4-4.4,7.5-4.4c-0.3,1.2-0.6,2.3-1,3.5C47.5,66.9,45.9,66.9,44.3,66.9L44.3,66.9z M48.4,59.8c0-0.1,0-0.1-4.8-2.8
		c1.7-0.7,2.6-0.8,4.4,0C48.1,57.9,48.1,58.8,48.4,59.8L48.4,59.8z M51.1,60.9c0.5-3,1.9-6,2.9-8.7h0.1c0.6,1.5,1.1,2.7,1.2,4.5
		c-0.1,0.7-0.2,1.3-0.4,2c-0.1,0-0.6,0.5-1.6,1.3C52.6,60.4,51.8,60.8,51.1,60.9L51.1,60.9z M73.3,96.8c-0.8-0.2-1.3-0.4-1.9-0.7
		c-1.3-1.1-1-1.2-2.3-0.5c-0.4,0.1-0.7,0.3-1.2,0.5c-2.3,0.4-3.8,0.2-5.8-0.5c-0.4-0.1-0.7-0.3-1.1-0.5c-1.6-1-1.6-1-1.9-1.1
		c-2.2,0.5-4.9,1.1-6.4-0.8c-0.3-0.7-0.6-1.4-0.9-2.1c-0.5-0.2-0.5-0.9-0.9-1.1c-1.9-0.4-3.4-0.7-4.8-1.9c-0.9-1.5-1.1-2.7-1.3-4.2
		c-0.3-0.2-1.2-0.8-2-1.3c-2.1-2.2-2.4-4.5-1.8-7.4c0.2-0.4,0.3-0.9,0.5-1.2c0.8-1.4,0.7-1.2-0.5-2.1c-0.6-0.7-1-1.3-1.3-1.9
		c-0.8-2.8-0.2-5,1.5-7.1c1.8-1.3,1.2-1,0.1-2.7c-1.3-2.6-0.1-5.1,2.6-5.7c1.1-0.1,1.8-0.2,3,0.4c0.5,0.3,0.8,0.7,1.2,0.2
		c0.3-2.8,1.7-4.3,4.3-5.1c1.5,0,2.6,0.1,3.9,1.4c1.2,1.7,1,3.9,1,6.1c0.3,0.4,0.9,0.3,1.5,0.3c2.5,0.6,3.7,2.2,3.3,4.9
		c-1,2.4-3.5,2.6-5.7,2.7c0-0.3-0.1-0.6-0.1-0.9c2.1-0.3,3.6-0.7,4.9-2.5c0-0.2,0-0.3-0.1-0.5c-1.7-1.8-3.1-2.8-5.3-3
		c0.1-0.5,0.2-1,0.2-1.4c0-2.5-0.6-4.2-1.9-6.1c-1.6,0-3.5,1.8-4.6,2.9c-0.5,0.7-0.9,1.5-1.3,2.3c-2.1-1.1-4.1-0.7-5.9,0.6
		c-0.2,1.1,0.3,2.5,1.2,3.5c0.2,0.1,0.7,0.4,0.8,0.7c-1.8,1.8-3.6,3.4-3.6,6.2c0.4,0.5,2.9,0.5,3.7,0.5v0.1c-0.3,0-0.6,0-0.8,0
		c-0.3,0.3-0.2,2.7-0.2,3.4c0.3,3.7,1.3,6.4,3.7,9.4c0.4,0.4,0.8,0.8,1.2,1.2c0.8,0.7,5.7,4.8,6.8,4.2c0-0.1,0-0.1,0-0.5
		c-3.3-2.8-5.5-5.5-6.8-9.4c-0.9-3.3-0.4-5.8,0.6-8.8C48.9,67,48.9,67,48.7,67c0.1-0.1,0.3-0.2,0.4-0.2c1.5,2.5,3.7,3.7,6.4,5.1
		c1-0.2,1.2-2.9,1.3-3.5c3.5,0.3,6.2-0.7,8.3-3.5c1.6-2.5,1.8-4.8,1.8-7.4c-0.2-2.3-0.7-4.2-1.5-6.2c-1.5-3-3.3-5.8-5.1-8.5
		c-0.8-1-1.5-2-2.3-3c-1.2-1.4-2.3-2.6-3.4-3.7c-1.2-1-5.2-4.7-6.3-4.7c-0.2,0.2-0.2,0.1-0.2,0.5c1.2,1.2,2.4,2.4,4.7,4.9
		c2.3,2.6,4.5,5.4,6.7,8.4c0.6,1,1.2,2.1,1.9,3.1c2.4,4.8,5.1,11.6,1.5,16.7c-1.7,1.7-3.7,2.2-6.1,1.8c0-0.1-0.1-0.2-0.1-0.4
		c2.4-0.1,4.4-0.5,5.9-2.5c1.2-2.4,0.3-4.6-1.5-6.1C60,57.3,59.4,57,58.3,57c0-2.4,0.1-4.6-1.5-6.4c-0.8-0.7-1.2-0.9-2.2-1.2
		c-0.3-1.9-1.1-2.9-2.2-4.2c-4.9-4.5-5.1-4.6-9.2-8.5c-0.2-0.1-4.4-4-4.6-4.2c-3-2.8-6-5.6-9-8.4c-0.3,0-0.3,0-0.5,0
		c-0.3-1-0.9-1.3-1.5-1.7c8.7,1.2,16.8,4,24.3,9c6.9,5.2,12.9,11.8,16.5,19.9c0.6,1.9,1.3,3.8,1.5,5.9v2.1C69.7,62,68.7,64,67,66
		c-0.9,0.7-1.7,1.3-2.6,1.9c-0.5,0.2-1.1,0.3-1.6,0.5c-2,0-1.7-0.2-2,1.6c0,2.2,0,3.2,1.9,4.9c2.6,1.6,5.8,2.2,8.9,2.9
		c0.2,0.9,0.5,1.7,1,2.7c-0.7,1.9-0.9,3.1-0.5,5.2c0.5,1.7,1.3,3.1,2.5,4.7c-0.1,2.3,0,3.9,0.9,6.2C75.1,96.6,75.1,96.6,73.3,96.8
		L73.3,96.8z M104.8,80.4c-1-1.2-0.9-2.7-1.1-4c-0.3-0.8-0.6-1.4-1-2c-0.3-0.3-2.6-2-0.8-1.8c0.9,0.4,1.7,0.7,2.8,0.7
		c1.2,0.7,1,4.2,0.7,5.6c0,0.3,0.1,1.1-0.2,1.4C105,80.4,104.8,80.4,104.8,80.4L104.8,80.4z M104.4,83.1c-0.2-0.7-0.2-0.7-0.4-1.2
		c-1.4-2-3-3.5-3.9-5.5c-0.2-1.2-0.5-2.5-0.7-3.5c0.1-0.4,0.4-0.7,0.6-1c0.1-0.3,0.2-0.7,0.4-1h0.1c1.5,1.7,3.3,1.8,5.6,1.7
		c1.1,2.2,1.8,4.3,0.9,6.9C106.5,80.4,105.5,82.8,104.4,83.1L104.4,83.1z M95.6,81.4c-1.4-1.2-1.1-2-1.2-3.7
		c-0.3-0.9-0.6-1.7-0.9-2.4c-0.2-0.4-1.9-2.3-0.5-2.1c0.9,0.8,1.7,1.6,2.6,2.4c0.4,1.2,0.6,2,0.6,3.2c-0.1,0.4-0.6,1.3-0.2,1.8
		C96,81.1,96.1,81.3,95.6,81.4L95.6,81.4z M94.8,83.3c-0.1-0.5-0.5-0.9-0.7-1.2c-1.2-1.5-1.2-1.5-1.7-2.3c-1.6-2.8-1.5-5.1-0.5-8
		c1,1.5,2.2,2.4,3.9,3.5c1,0,2-1.4,2.8-1.6c-0.1,3.6-1.2,6.9-3.7,9.7C94.9,83.3,94.9,83.3,94.8,83.3L94.8,83.3z M75.5,77.6
		c-0.1-0.1-0.2-0.2-0.3-0.2c0.1-2.2,0.6-4.6,2.6-5.7c1.9-0.7,1.9-0.7,2.3-0.7c0.1,0.2,0.2,0.4,0.3,0.6c-0.7,0.7-1.5,1.4-2.2,2.1
		c-0.8,1-2.1,2.4-2.3,3.7C75.9,77.5,75.9,77.5,75.5,77.6L75.5,77.6z M84.5,80.9c-0.4-0.2-0.2-0.6-0.2-0.9c0.1-1.3,0.2-2.5,0.6-3.7
		c0.3-0.6,0.6-1.2,1-1.8c0.9-0.5,2.5-1.3,3.7-1.3c0.1,0.1,0.2,0.2,0.1,0.6c-1.4,0.7-2,1.2-2.8,2.5c-0.2,0.3-0.3,0.7-0.5,1
		C86.3,78.3,85.8,80.6,84.5,80.9L84.5,80.9z M84.9,83c-2-2.3-3-4.9-2.3-7.8c0.8-0.7,1.7-1.4,2.5-2.1c0.1,0.1,0.1,0.1,0.5,0.7
		c1.7-0.2,3.8-0.7,5.3-1.8c-0.5,2.2-0.7,4.4-1.7,6.5C88,80.4,86.3,81.4,84.9,83L84.9,83z M82.6,68.8c0.6-0.5,0.6-0.5,0.7-0.5
		c0.1,0.7,0.2,1.4,0.5,2.2c0.5,3.7-8.1,8.5-10.3,10.2c-0.5-1-1.2-2.3-1-3.3c0.1-2.1,0.4-3.4,1.2-5.3C75.6,69,79.8,70.3,82.6,68.8
		L82.6,68.8z M79.3,91.4c-1-0.2-2-0.5-2.8-0.8c0.8-1.5,2.2-2.7,3.5-3.9c0.2,0.2,0.3,0.5,0.5,0.7c2.7,2.1,6.4,2,9.4,0.2
		c0.4,0.2,0.9,0.5,1.3,0.8c2.5,0.8,4.7,1,7.2-0.4c0.2,0,2.6,2.4,3,2.9c-2,0.8-5.1,0.7-7-0.1c-0.5-0.3-0.7-0.6-1.1-0.6
		c-2.2,1.6-5.2,1.5-7.5,0.5c-0.5-0.3-1-0.8-1.5-0.7C82.6,91.1,81.1,91.4,79.3,91.4L79.3,91.4z M103.1,89.9c-0.4-0.8-1.7-1.7-2.2-2.2
		c-0.4-0.5-0.7-0.9-1.1-1.3c-1.1-1.8-1.7-3.8-1.3-5.7c0.5-1,0.9-2.1,1.2-3.1c1,1.7,2.4,3.2,3.7,4.9c0.3,1,0.1,1.3-0.3,2.4
		c0,0.4,0,0.4,0.4,0.6c0.8-0.5,0.8-0.5,1-0.5C103.3,89.9,103.3,89.9,103.1,89.9L103.1,89.9z M83.9,87.8c-1.1-0.2-3.1-0.6-3.5-1.7
		c0.9-1.3,1.5-2.5,1.9-3.9c1.7,2,1.7,2,2.9,3.2c0.2,0,0.4,0.1,0.6-0.2c-0.1-1.1-0.3-1.5,0.1-2.3c1.9-1.5,2-1.6,4.5-3.6
		c0.5,0.8,0.5,0.8,1.1,1.5c0.7,0.6,2.5,1.7,2.5,3c-0.1,0.4-1,1.8,0,1.8c0.8-0.6,1.5-1.2,2.3-2c0.2,1,0.4,1.9,1,3
		c0,0.4-1.8,0.8-2,0.9c-2,0.2-3.3,0-5-0.9c-1.2-0.9-0.9-0.7-2,0c-1,0.5-1.9,0.8-3,1C84.9,87.6,84.4,87.8,83.9,87.8L83.9,87.8z
		 M75.3,89.9c-2.1-2.8-3-4.9-2.2-8.3c0.2,0,0.2,0,0.6,0c1.9-1.1,4-2.2,5.9-3.6h0.2c0.6,2.3,0.5,4-0.7,6.3c-1.1,1.6-2.3,2.9-3.6,4.4
		C75.3,89.1,75.3,89.4,75.3,89.9L75.3,89.9z M84.9,123.5l0.7-0.7c0,2.7,0,5.5,0.2,8.3c0.2,1.2,0.2,1.2,0.5,2
		c0.6,1.3,1.2,2.6,1.9,3.9c0.5,0.3,0.7,0,0.7-0.5c-0.8-1.7-1.6-3.2-2.1-4.9c-0.1-0.5-0.1-1-0.2-1.5c0-5.3,0-10.5-0.1-15.8
		c-0.1-2.7-0.1-5.5-1.3-7.9c1,0,1.6,2.2,1.7,3.1c0,0.7,0.1,1.5,0.1,2.2c0.2,0.2,0.2,0.1,0.5,0.2c0.2-0.1,0.2-0.1,0.2-0.3
		c0.3-5,0.3-5,0.3-5.9c-0.1-0.1-0.1-0.2-0.2-0.2c0.7-0.3,1.3-0.6,2-1.1c0.7,0.4,1.3,0.7,2.3,1v0.1c-0.1,0-0.1,0.1-0.2,0.1
		c-0.1,0.2-0.5,9.7-0.5,11.6c0.1,0.1,0.2,0.2,0.6,0.1c0-0.1,0.1-0.2,0.2-0.2c-0.3-1.1,1.6-10.4,2.7-11.3c0.2,0,0.4,0,0.5,0
		c-1.4,2.2-1.8,4.6-2.2,7.2c-0.5,5.9-0.2,11.8-0.2,17.8c-0.5,2.1-2.3,3.9-3.6,5.7c0,2.3,0,4.6-0.1,6.9c-0.4-1.4-0.8-2.8-1.3-4
		c-2.2-3.4-2.2-3.4-3-4.7c-0.3-0.2-0.5,0-0.6,0.1C84.9,130.9,85.3,127.1,84.9,123.5L84.9,123.5z M96.8,104.4c-2.1,0.4-4.2-0.1-6-1
		c-1.4-1-1.2-0.9-2.5,0c-2.6,1.3-7.7,0.9-9.4-1.7c1.9,0,3.2,0,4.8-1.3h0.2c1.2,0.9,3,1.4,4.7,1.5h2.3c1.7-0.2,3.1-0.5,4.7-1.3h0.2
		c1.2,0.9,2.3,1.1,3.9,1.1c0.5-0.1,1-0.2,1.6-0.2C100.8,103.8,98.4,103.4,96.8,104.4L96.8,104.4z M101.6,98.9
		c-0.3-0.5-0.8-0.9-1.2-1.2c-0.4-0.6-3.5-4.7-3.5-4.9c1.8,0.2,3.7,0.1,5.5-0.6c0.5,1.3,0.4,2.8,0.1,4.3c-0.2,0.6-0.5,1.2-0.8,1.7
		C101.8,98.8,101.8,98.8,101.6,98.9L101.6,98.9z M78.8,100.4c0,0-0.1,0-0.1-0.1c0.2-1.3,1.5-2.6,2.3-3.5h0.2
		c2.2,1.5,4.7,1.2,7.2,0.4c0.5-0.3,1-0.6,1.5-0.9c2.5,1.4,5.4,1.9,8.2,0.4c0.8,0,2.6,2.5,3.1,3.2c-2.2,0.6-4.1,0.5-5.8-0.9
		c-0.1,0-0.3,0-0.4,0c-2.6,1.8-9.2,1.6-11.6-0.2c-0.1,0-0.2,0-0.4,0c-0.9,0.7-1.8,1.3-2.8,1.5C79.8,100.4,79.3,100.4,78.8,100.4
		L78.8,100.4z M78.5,98.4c-0.2-0.5-0.5-0.7-0.7-0.9c-1.2-2.1-1.6-3.4-1.5-5.7c0.8,0.4,1.6,0.7,2.6,1c0.9,0.1,2,0.1,3,0
		C80.9,94.5,79.9,96.8,78.5,98.4L78.5,98.4z M84.3,96.4c-0.8-0.1-1.7-0.3-2.3-0.5c0.4-0.7,0.8-1.3,1.1-2.1c0.1-0.5,0.2-1,0.2-1.5
		c0.5-0.2,1.3-0.5,1.8-0.9c0.1,0,0.2,0,0.3,0.1c1.3,0.8,2.6,1.1,4.3,1.2c1.5-0.1,3-0.2,4.3-1.1c0.2,0,1.2,0.5,1.7,0.7
		c0.1,1.2,0.5,2.1,1.4,3.2c-1.8,1.2-4.4,0.6-6.2,0c-1.5-1-1.1-1-2.4-0.2C86.8,96.1,85.8,96.4,84.3,96.4L84.3,96.4z M131.5,60.1
		c0.3-1.1,0.4-1.8,0.4-2.8c1.6-0.8,2.5-0.8,4.4-0.1v0.2C134.8,58.3,133.3,59.1,131.5,60.1L131.5,60.1z M134.6,67.3
		c-1.5-0.2-2.5-0.3-3.5-1.1c-0.9-3.5-0.9-3.5-0.9-3.6c2.5,1.5,4.9,3,7.4,4.5L134.6,67.3z M124.5,70.9c-0.7-2.2-0.5-4.3,0.1-6.3
		c-0.2-0.3-0.3-0.5-0.5-0.5c-1.8-0.4-2.9-0.5-4.2-1.5v-0.1c3-0.1,5.9-0.2,8.9-0.3C127.3,65,125.9,67.9,124.5,70.9L124.5,70.9z
		 M128.8,61.1c-1.6-0.5-2.5-1.2-3.7-2.1c-1-2.1-0.2-4.6,0.7-6.4h0.1c1.1,2.7,2.2,5.6,3,8.6h-0.1V61.1z M105.8,90.6
		c-0.7-0.5,0.7-3.7,0.8-4.2c0.3-0.2,2.5,0,2.7,0c4.2-0.4,8.3-1.3,12.4-2.9c0.9-0.5,1.7-0.9,2.6-1.3c0.3,0,0.5,0,0.5,0.6
		c-0.7,0.6-1.3,1.2-2,1.8c-2.2,1.7-4.5,3.1-7.2,4.1c-1,0.3-2,0.6-3,0.9C110.4,90,108.1,90.4,105.8,90.6L105.8,90.6z M104.4,98
		c-0.2,0-0.5-0.1-0.7-0.2c1-2.2,0.8-4.4,0.6-6.7c0.5-0.9,0.9-1.8,1.2-2.8c0.2-1.5,0.2-2.9,0.1-4.2c1.6-1.5,2.5-2.7,2.9-4.8
		c0-0.5,0-0.9,0-1.4c2.9-0.7,6-1.2,8.6-2.8c2-1.7,2-2.6,2-5c-0.1-1.5,0-1.5-1.3-1.4c-3.2-0.3-5.2-2.7-6.5-5.1
		c-0.7-1.6-0.9-2.9-1.1-4.4c0-7.2,3.5-12.5,7.7-17.9c1.5-1.7,3.1-3.5,4.7-5.2c1.8-1.6,1.8-1.6,3.6-3.2c2.3-1.7,4.6-3.2,7.2-4.7
		c1.3-0.6,2.6-1.2,3.9-1.8c2.4-0.9,2.4-0.9,5-1.8c3.2-0.9,6.5-1.7,9.9-2.2c0,0,0.1,0,0.2,0c-0.6,0.5-1.4,0.9-1.5,1.7
		c-0.3-0.1-0.4,0-0.6,0c-21.7,20-21.7,20-22.9,21.2c-1,1.3-1.7,2.2-1.9,3.9c-3.7,1.1-3.8,4.3-3.7,7.7c-4,0-6.1,3.7-4.2,7.2
		c1.4,1.6,3.6,2,5.7,2.1c0,0.2-0.1,0.3-0.2,0.5c-2.5,0.2-4.2-0.1-5.9-1.7c-3.2-4.5-1.7-9.9,0.2-14.4c1.1-2.3,2.4-4.4,3.8-6.6
		c0.9-1.2,1.8-2.5,2.8-3.7c2.5-3,5.1-5.7,7.8-8.4c0-0.1,0.1-0.2,0.1-0.3c-0.2-0.4-0.3-0.3-0.6-0.3c-2.3,1.7-2.4,1.8-3.9,3
		c-0.1,0.2-0.8,0.7-3.7,3.5c-0.8,0.9-1.6,1.9-2.4,2.8c-2.7,3.8-5.7,7.7-7.3,12.1c-0.2,0.8-0.5,1.6-0.7,2.4
		c-0.8,5.2-0.1,10.5,5.4,12.9c1.3,0.4,2.7,0.5,4.2,0.4c0.2,0.6,0.3,3.5,1.5,3.5c2.3-1.2,5-2.6,6.2-5c0.1,0,0.1,0,0.3,0.2
		c-0.1,0.1-0.2,0.2-0.2,0.4c0.9,2.4,1.3,4.4,1,7.1c-0.2,1.2-0.6,2.5-1.1,3.8c-1.1,2.2-2.7,4.2-4.4,6c-0.5,0.5-1.1,1-1.6,1.4
		c0,0.4-0.1,0.4,0.4,0.6c2.5-1.3,4.7-2.7,6.8-4.7c1.2-1.4,2.2-2.8,3.1-4.4c0.7-1.7,1.1-3.3,1.4-5c0-0.7,0-0.7,0-3.9
		c-0.1-0.2-0.1-0.2-0.4-0.3c0.2,0,2.6-0.1,3-0.5c0.1-3-1.7-4.4-3.5-6.3c0.7-0.6,0.7-0.6,1.3-1.2c0.3-0.7,1-2.5,0.6-3.1
		c-2.3-1.3-3.5-1.4-5.9-0.5c-0.9-2.7-3-4.2-5.4-5.2c-0.1,0-0.2,0-0.4,0c-1.7,2.3-2.3,4.6-1.7,7.4c-2.3,0.1-3.7,1.4-5.3,3
		c0,2.2,3.1,2.7,4.8,3.1c0,0.1-0.1,0.5-0.1,0.9c-1.7-0.1-3.4-0.4-4.7-1.2c-1.8-1.6-1.4-4.3,0.3-5.7c1.2-0.7,1.7-0.8,3.2-0.8
		c0.1-0.1,0.2-0.2,0.2-0.3c-0.1-1.6-0.1-3,0.2-4.5c0.7-2.4,2.2-3,4.6-3c2.7,0.6,3.9,2.5,4.4,5.3c0.1,0,0.2,0.2,0.5,0.1
		c2.6-1.7,5.4-1.2,6.7,1.9c0.2,1.9-0.3,2.8-1.5,4.4c0,0.2-0.1,0.2,0.1,0.5c2.9,1.7,3.9,5.9,2,8.9c-0.5,0.6-1.2,1.2-1.8,1.7v0.2
		c1.1,1.7,1.4,3.7,1.2,5.9c-0.3,1.6-1,3-2.5,4c-0.5,0.3-1.2,0.5-1.5,1c-0.2,1.3-0.5,2.9-1.3,4.2c-1.7,1.2-3,1.6-4.9,2
		c-0.2,0.2-0.3,0.6-0.5,1c-0.6,0-1,1.7-1.2,2.2c-1.4,1.8-4.3,1.4-6.2,0.9h-0.4c-2.7,2-6.1,2.6-9.1,1.7c-0.5-0.2-1-0.5-1.5-0.8
		c-0.8,0.4-1.7,1.5-2.4,2.1C106.4,98,105.6,98,104.4,98L104.4,98z"/>
</g>
</svg>
